<?xml version="1.0" encoding="UTF-8"?>
<svg xmlns="http://www.w3.org/2000/svg" xmlns:xlink="http://www.w3.org/1999/xlink"
     width="2139" height="1691" viewBox="0 0 2139 1691">
<defs>
</defs>
<style>@media (prefers-color-scheme: dark) {
    .nf-metro-section-label { fill: #d0d0d0; }
    .nf-metro-section-num-circle { fill: #777777; }
    .nf-metro-title { fill: #ffffff; }
}
</style>
<text x="60.0" y="30.0" font-size="26.0" fill="#111111" font-family="'Helvetica Neue', Helvetica, Arial, sans-serif" font-weight="bold" class="nf-metro-title">nf-denovoslim</text>
<rect x="30.0" y="85.0" width="220.0" height="70.0" rx="8" ry="8" fill="#ededed" stroke="#e6e6e6" stroke-width="1.0" />
<circle cx="41.0" cy="70.0" r="11" fill="#333333" class="nf-metro-section-num-circle" />
<text x="41.0" y="70.0" font-size="12" fill="#ffffff" font-family="'Helvetica Neue', Helvetica, Arial, sans-serif" font-weight="bold" text-anchor="middle" dy="0.3em">1</text>
<text x="57.0" y="70.0" font-size="17.0" fill="#666666" font-family="'Helvetica Neue', Helvetica, Arial, sans-serif" font-weight="bold" dy="0.3em" class="nf-metro-section-label">Pre-processing</text>
<rect x="300.0" y="85.0" width="288.0" height="70.0" rx="8" ry="8" fill="#ededed" stroke="#e6e6e6" stroke-width="1.0" />
<circle cx="311.0" cy="70.0" r="11" fill="#333333" class="nf-metro-section-num-circle" />
<text x="311.0" y="70.0" font-size="12" fill="#ffffff" font-family="'Helvetica Neue', Helvetica, Arial, sans-serif" font-weight="bold" text-anchor="middle" dy="0.3em">2</text>
<text x="327.0" y="70.0" font-size="17.0" fill="#666666" font-family="'Helvetica Neue', Helvetica, Arial, sans-serif" font-weight="bold" dy="0.3em" class="nf-metro-section-label">Transcript Clustering</text>
<rect x="638.0" y="85.0" width="225.5" height="70.0" rx="8" ry="8" fill="#ededed" stroke="#e6e6e6" stroke-width="1.0" />
<circle cx="649.0" cy="70.0" r="11" fill="#333333" class="nf-metro-section-num-circle" />
<text x="649.0" y="70.0" font-size="12" fill="#ffffff" font-family="'Helvetica Neue', Helvetica, Arial, sans-serif" font-weight="bold" text-anchor="middle" dy="0.3em">3</text>
<text x="665.0" y="70.0" font-size="17.0" fill="#666666" font-family="'Helvetica Neue', Helvetica, Arial, sans-serif" font-weight="bold" dy="0.3em" class="nf-metro-section-label">Taxonomy &amp; Dedup</text>
<rect x="1162.5" y="85.0" width="194.0" height="70.0" rx="8" ry="8" fill="#ededed" stroke="#e6e6e6" stroke-width="1.0" />
<circle cx="1173.5" cy="70.0" r="11" fill="#333333" class="nf-metro-section-num-circle" />
<text x="1173.5" y="70.0" font-size="12" fill="#ffffff" font-family="'Helvetica Neue', Helvetica, Arial, sans-serif" font-weight="bold" text-anchor="middle" dy="0.3em">4</text>
<text x="1189.5" y="70.0" font-size="17.0" fill="#666666" font-family="'Helvetica Neue', Helvetica, Arial, sans-serif" font-weight="bold" dy="0.3em" class="nf-metro-section-label">Genome-guided Collapse</text>
<rect x="1540.0" y="85.0" width="216.5" height="70.0" rx="8" ry="8" fill="#ededed" stroke="#e6e6e6" stroke-width="1.0" />
<circle cx="1551.0" cy="70.0" r="11" fill="#333333" class="nf-metro-section-num-circle" />
<text x="1551.0" y="70.0" font-size="12" fill="#ffffff" font-family="'Helvetica Neue', Helvetica, Arial, sans-serif" font-weight="bold" text-anchor="middle" dy="0.3em">5</text>
<text x="1567.0" y="70.0" font-size="17.0" fill="#666666" font-family="'Helvetica Neue', Helvetica, Arial, sans-serif" font-weight="bold" dy="0.3em" class="nf-metro-section-label">Frameshift Correction</text>
<rect x="1806.5" y="85.0" width="272.5" height="383.5" rx="8" ry="8" fill="#ededed" stroke="#e6e6e6" stroke-width="1.0" />
<circle cx="1817.5" cy="70.0" r="11" fill="#333333" class="nf-metro-section-num-circle" />
<text x="1817.5" y="70.0" font-size="12" fill="#ffffff" font-family="'Helvetica Neue', Helvetica, Arial, sans-serif" font-weight="bold" text-anchor="middle" dy="0.3em">6</text>
<text x="1833.5" y="70.0" font-size="17.0" fill="#666666" font-family="'Helvetica Neue', Helvetica, Arial, sans-serif" font-weight="bold" dy="0.3em" class="nf-metro-section-label">ORF Prediction — TD2 Branch</text>
<rect x="1841.0" y="506.5" width="238.0" height="240.0" rx="8" ry="8" fill="#ededed" stroke="#e6e6e6" stroke-width="1.0" />
<circle cx="1852.0" cy="491.5" r="11" fill="#333333" class="nf-metro-section-num-circle" />
<text x="1852.0" y="491.5" font-size="12" fill="#ffffff" font-family="'Helvetica Neue', Helvetica, Arial, sans-serif" font-weight="bold" text-anchor="middle" dy="0.3em">7</text>
<text x="1868.0" y="491.5" font-size="17.0" fill="#666666" font-family="'Helvetica Neue', Helvetica, Arial, sans-serif" font-weight="bold" dy="0.3em" class="nf-metro-section-label">ORF Prediction — MetaEuk Branch</text>
<rect x="1904.0" y="784.5" width="175.0" height="200.0" rx="8" ry="8" fill="#ededed" stroke="#e6e6e6" stroke-width="1.0" />
<circle cx="1915.0" cy="769.5" r="11" fill="#333333" class="nf-metro-section-num-circle" />
<text x="1915.0" y="769.5" font-size="12" fill="#ffffff" font-family="'Helvetica Neue', Helvetica, Arial, sans-serif" font-weight="bold" text-anchor="middle" dy="0.3em">8</text>
<text x="1931.0" y="769.5" font-size="17.0" fill="#666666" font-family="'Helvetica Neue', Helvetica, Arial, sans-serif" font-weight="bold" dy="0.3em" class="nf-metro-section-label">ORF Prediction — GeneMarkS-T Branch</text>
<rect x="1406.5" y="1072.5" width="350.0" height="70.0" rx="8" ry="8" fill="#ededed" stroke="#e6e6e6" stroke-width="1.0" />
<circle cx="1417.5" cy="1057.5" r="11" fill="#333333" class="nf-metro-section-num-circle" />
<text x="1417.5" y="1057.5" font-size="12" fill="#ffffff" font-family="'Helvetica Neue', Helvetica, Arial, sans-serif" font-weight="bold" text-anchor="middle" dy="0.3em">9</text>
<text x="1433.5" y="1057.5" font-size="17.0" fill="#666666" font-family="'Helvetica Neue', Helvetica, Arial, sans-serif" font-weight="bold" dy="0.3em" class="nf-metro-section-label">Merge &amp; Post-processing</text>
<rect x="1904.0" y="1022.5" width="175.0" height="246.0" rx="8" ry="8" fill="#ededed" stroke="#e6e6e6" stroke-width="1.0" />
<circle cx="1915.0" cy="1007.5" r="11" fill="#333333" class="nf-metro-section-num-circle" />
<text x="1915.0" y="1007.5" font-size="12" fill="#ffffff" font-family="'Helvetica Neue', Helvetica, Arial, sans-serif" font-weight="bold" text-anchor="middle" dy="0.3em">10</text>
<text x="1931.0" y="1007.5" font-size="17.0" fill="#666666" font-family="'Helvetica Neue', Helvetica, Arial, sans-serif" font-weight="bold" dy="0.3em" class="nf-metro-section-label">Gene-level Quantification</text>
<rect x="933.5" y="1072.5" width="423.0" height="70.0" rx="8" ry="8" fill="#ededed" stroke="#e6e6e6" stroke-width="1.0" />
<circle cx="944.5" cy="1057.5" r="11" fill="#333333" class="nf-metro-section-num-circle" />
<text x="944.5" y="1057.5" font-size="12" fill="#ffffff" font-family="'Helvetica Neue', Helvetica, Arial, sans-serif" font-weight="bold" text-anchor="middle" dy="0.3em">11</text>
<text x="960.5" y="1057.5" font-size="17.0" fill="#666666" font-family="'Helvetica Neue', Helvetica, Arial, sans-serif" font-weight="bold" dy="0.3em" class="nf-metro-section-label">Full Trinity Quantification</text>
<rect x="638.0" y="1262.5" width="698.5" height="230.0" rx="8" ry="8" fill="#ededed" stroke="#e6e6e6" stroke-width="1.0" />
<circle cx="649.0" cy="1247.5" r="11" fill="#333333" class="nf-metro-section-num-circle" />
<text x="649.0" y="1247.5" font-size="12" fill="#ffffff" font-family="'Helvetica Neue', Helvetica, Arial, sans-serif" font-weight="bold" text-anchor="middle" dy="0.3em">12</text>
<text x="665.0" y="1247.5" font-size="17.0" fill="#666666" font-family="'Helvetica Neue', Helvetica, Arial, sans-serif" font-weight="bold" dy="0.3em" class="nf-metro-section-label">QC &amp; Annotation</text>
<rect x="622.5" y="1158.5" width="271.0" height="70.0" rx="8" ry="8" fill="#ededed" stroke="#e6e6e6" stroke-width="1.0" />
<circle cx="633.5" cy="1143.5" r="11" fill="#333333" class="nf-metro-section-num-circle" />
<text x="633.5" y="1143.5" font-size="12" fill="#ffffff" font-family="'Helvetica Neue', Helvetica, Arial, sans-serif" font-weight="bold" text-anchor="middle" dy="0.3em">13</text>
<text x="649.5" y="1143.5" font-size="17.0" fill="#666666" font-family="'Helvetica Neue', Helvetica, Arial, sans-serif" font-weight="bold" dy="0.3em" class="nf-metro-section-label">Reporting</text>
<path d="M724.0,1460.5 L2049.0,1460.5 Q2059.0,1460.5,2059.0,1450.5 L2059.0,1275.5 Q2059.0,1265.5,2049.0,1265.5 L724.0,1265.5" stroke="#f5c542" stroke-width="4.0" fill="none" stroke-linecap="round" stroke-linejoin="round" />
<path d="M724.0,1417.5 L2049.0,1417.5 Q2059.0,1417.5,2059.0,1407.5 L2059.0,1272.5 Q2059.0,1262.5,2049.0,1262.5 L724.0,1262.5" stroke="#2db572" stroke-width="4.0" fill="none" stroke-linecap="round" stroke-linejoin="round" />
<path d="M1336.5,1380.5 L1331.5,1380.5 Q1321.5,1380.5,1317.988765584116,1389.8632917756904 L1295.011234415884,1451.1367082243096 Q1291.5,1460.5,1281.5,1460.5 L724.0,1460.5" stroke="#f5c542" stroke-width="4.0" fill="none" stroke-linecap="round" stroke-linejoin="round" />
<path d="M1336.5,1377.5 L1331.5,1377.5 Q1321.5,1377.5,1317.988765584116,1368.1367082243096 L1295.011234415884,1306.8632917756904 Q1291.5,1297.5,1281.5,1297.5 L724.0,1297.5" stroke="#2db572" stroke-width="4.0" fill="none" stroke-linecap="round" stroke-linejoin="round" />
<path d="M1336.5,1377.5 L1331.5,1377.5 Q1321.5,1377.5,1315.5,1369.5 L1297.5,1345.5 Q1291.5,1337.5,1281.5,1337.5 L724.0,1337.5" stroke="#2db572" stroke-width="4.0" fill="none" stroke-linecap="round" stroke-linejoin="round" />
<path d="M1336.5,1377.5 L724.0,1377.5" stroke="#2db572" stroke-width="4.0" stroke-linecap="round" />
<path d="M1336.5,1377.5 L1331.5,1377.5 Q1321.5,1377.5,1315.5,1385.5 L1297.5,1409.5 Q1291.5,1417.5,1281.5,1417.5 L724.0,1417.5" stroke="#2db572" stroke-width="4.0" fill="none" stroke-linecap="round" stroke-linejoin="round" />
<path d="M724.0,1297.5 L724.0,1262.5" stroke="#2db572" stroke-width="4.0" stroke-linecap="round" />
<path d="M724.0,1265.5 L724.0,1231.5" stroke="#f5c542" stroke-width="4.0" stroke-linecap="round" />
<path d="M724.0,1262.5 L724.0,1234.5" stroke="#2db572" stroke-width="4.0" stroke-linecap="round" />
<path d="M724.0,1262.5 L724.0,1234.5" stroke="#2db572" stroke-width="4.0" stroke-linecap="round" />
<path d="M730.0,1228.5 L730.0,1215.5 Q730.0,1199.5,714.0,1199.5 L694.0,1199.5" stroke="#2db572" stroke-width="4.0" fill="none" stroke-linecap="round" stroke-linejoin="round" />
<path d="M730.0,1228.5 L730.0,1215.5 Q730.0,1199.5,714.0,1199.5 L694.0,1199.5" stroke="#2db572" stroke-width="4.0" fill="none" stroke-linecap="round" stroke-linejoin="round" />
<path d="M727.0,1228.5 L727.0,1209.5 Q727.0,1196.5,714.0,1196.5 L694.0,1196.5" stroke="#f5c542" stroke-width="4.0" fill="none" stroke-linecap="round" stroke-linejoin="round" />
<path d="M893.5,1193.5 L694.0,1193.5" stroke="#457b9d" stroke-width="4.0" stroke-linecap="round" />
<path d="M893.5,1193.5 L694.0,1193.5" stroke="#457b9d" stroke-width="4.0" stroke-linecap="round" />
<path d="M1904.0,1193.5 L1797.5,1193.5 Q1794.5,1193.5,1794.5,1196.5 L1794.5,1196.5 Q1794.5,1199.5,1791.5,1199.5 L1113.0,1199.5 Q1110.0,1199.5,1110.0,1196.5 L1110.0,1196.5 Q1110.0,1193.5,1107.0,1193.5 L893.5,1193.5" stroke="#457b9d" stroke-width="4.0" fill="none" stroke-linecap="round" stroke-linejoin="round" />
<path d="M2029.0,1177.5 L2029.0,1183.5 Q2029.0,1193.5,2019.0,1193.5 L1904.0,1193.5" stroke="#457b9d" stroke-width="4.0" fill="none" stroke-linecap="round" stroke-linejoin="round" />
<path d="M2029.0,1137.5 L2029.0,1177.5" stroke="#457b9d" stroke-width="4.0" stroke-linecap="round" />
<path d="M1676.0,1113.5 L1616.0,1113.5" stroke="#2db572" stroke-width="4.0" stroke-linecap="round" />
<path d="M1616.0,1113.5 L1556.0,1113.5" stroke="#2db572" stroke-width="4.0" stroke-linecap="round" />
<path d="M1556.0,1113.5 L1496.0,1113.5" stroke="#2db572" stroke-width="4.0" stroke-linecap="round" />
<path d="M1756.5,1113.5 L1676.0,1113.5" stroke="#2db572" stroke-width="4.0" stroke-linecap="round" />
<path d="M1756.5,1113.5 L1676.0,1113.5" stroke="#2db572" stroke-width="4.0" stroke-linecap="round" />
<path d="M1756.5,1113.5 L1676.0,1113.5" stroke="#2db572" stroke-width="4.0" stroke-linecap="round" />
<path d="M1496.0,1113.5 L1406.5,1113.5" stroke="#2db572" stroke-width="4.0" stroke-linecap="round" />
<path d="M1406.5,1113.5 L1396.5,1113.5" stroke="#2db572" stroke-width="4.0" stroke-linecap="round" />
<path d="M1396.5,1113.5 L1396.5,1113.5 Q1383.5,1113.5,1383.5,1126.5 L1383.5,1163.0 Q1383.5,1175.5,1371.0,1175.5 L1371.0,1175.5 Q1358.5,1175.5,1358.5,1188.0 L1358.5,1364.5 Q1358.5,1377.5,1345.5,1377.5 L1336.5,1377.5" stroke="#2db572" stroke-width="4.0" fill="none" stroke-linecap="round" stroke-linejoin="round" />
<path d="M1258.0,1110.5 L1198.0,1110.5" stroke="#457b9d" stroke-width="4.0" stroke-linecap="round" />
<path d="M1198.0,1110.5 L1138.0,1110.5" stroke="#457b9d" stroke-width="4.0" stroke-linecap="round" />
<path d="M1138.0,1110.5 L1019.5,1110.5" stroke="#457b9d" stroke-width="4.0" stroke-linecap="round" />
<path d="M1356.5,1110.5 L1258.0,1110.5" stroke="#457b9d" stroke-width="4.0" stroke-linecap="round" />
<path d="M1356.5,1110.5 L1258.0,1110.5" stroke="#457b9d" stroke-width="4.0" stroke-linecap="round" />
<path d="M1356.5,1110.5 L1019.5,1110.5" stroke="#457b9d" stroke-width="4.0" stroke-linecap="round" />
<path d="M1356.5,1110.5 L1019.5,1110.5" stroke="#457b9d" stroke-width="4.0" stroke-linecap="round" />
<path d="M1496.0,1110.5 L1406.5,1110.5" stroke="#457b9d" stroke-width="4.0" stroke-linecap="round" />
<path d="M1356.5,1110.5 L1019.5,1110.5" stroke="#457b9d" stroke-width="4.0" stroke-linecap="round" />
<path d="M1019.5,1110.5 L933.5,1110.5" stroke="#457b9d" stroke-width="4.0" stroke-linecap="round" />
<path d="M1406.5,1110.5 L1396.5,1110.5" stroke="#457b9d" stroke-width="4.0" stroke-linecap="round" />
<path d="M1396.5,1110.5 L1356.5,1110.5" stroke="#457b9d" stroke-width="4.0" stroke-linecap="round" />
<path d="M933.5,1110.5 L1125.0,1110.5 Q1135.0,1110.5,1135.0,1120.5 L1135.0,1183.5 Q1135.0,1193.5,1125.0,1193.5 L893.5,1193.5" stroke="#457b9d" stroke-width="4.0" fill="none" stroke-linecap="round" stroke-linejoin="round" />
<path d="M1496.0,1107.5 L1406.5,1107.5" stroke="#f5c542" stroke-width="4.0" stroke-linecap="round" />
<path d="M1406.5,1107.5 L1396.5,1107.5" stroke="#f5c542" stroke-width="4.0" stroke-linecap="round" />
<path d="M1396.5,1107.5 L1396.5,1107.5 Q1386.5,1107.5,1386.5,1117.5 L1386.5,1187.5 Q1386.5,1207.5,1366.5,1207.5 L1366.5,1207.5 Q1346.5,1207.5,1346.5,1227.5 L1346.5,1370.5 Q1346.5,1380.5,1336.5,1380.5 L1336.5,1380.5" stroke="#f5c542" stroke-width="4.0" fill="none" stroke-linecap="round" stroke-linejoin="round" />
<path d="M1904.0,1100.5 L2026.0,1100.5 Q2029.0,1100.5,2029.0,1097.5 L2029.0,1097.5" stroke="#457b9d" stroke-width="4.0" fill="none" stroke-linecap="round" stroke-linejoin="round" />
<path d="M2029.0,1097.5 L2029.0,1137.5" stroke="#457b9d" stroke-width="4.0" stroke-linecap="round" />
<path d="M1904.0,915.5 L1788.5,915.5 Q1778.5,915.5,1778.5,925.5 L1778.5,1097.5 Q1778.5,1113.5,1762.5,1113.5 L1756.5,1113.5" stroke="#2db572" stroke-width="4.0" fill="none" stroke-linecap="round" stroke-linejoin="round" />
<path d="M2029.0,899.5 L2029.0,905.5 Q2029.0,915.5,2019.0,915.5 L1904.0,915.5" stroke="#2db572" stroke-width="4.0" fill="none" stroke-linecap="round" stroke-linejoin="round" />
<path d="M2029.0,859.5 L2029.0,899.5" stroke="#2db572" stroke-width="4.0" stroke-linecap="round" />
<path d="M1904.0,859.5 L2029.0,859.5 L2029.0,859.5" stroke="#2db572" stroke-width="4.0" fill="none" stroke-linecap="round" stroke-linejoin="round" />
<path d="M1841.0,677.5 L1794.5,677.5 Q1781.5,677.5,1781.5,690.5 L1781.5,1100.5 Q1781.5,1113.5,1768.5,1113.5 L1756.5,1113.5" stroke="#2db572" stroke-width="4.0" fill="none" stroke-linecap="round" stroke-linejoin="round" />
<path d="M2029.0,661.5 L2029.0,667.5 Q2029.0,677.5,2019.0,677.5 L1841.0,677.5" stroke="#2db572" stroke-width="4.0" fill="none" stroke-linecap="round" stroke-linejoin="round" />
<path d="M2029.0,621.5 L2029.0,661.5" stroke="#2db572" stroke-width="4.0" stroke-linecap="round" />
<path d="M2029.0,581.5 L2029.0,621.5" stroke="#2db572" stroke-width="4.0" stroke-linecap="round" />
<path d="M1841.0,581.5 L2029.0,581.5 L2029.0,581.5" stroke="#2db572" stroke-width="4.0" fill="none" stroke-linecap="round" stroke-linejoin="round" />
<path d="M1806.5,399.5 L1800.5,399.5 Q1784.5,399.5,1784.5,415.5 L1784.5,1103.5 Q1784.5,1113.5,1774.5,1113.5 L1756.5,1113.5" stroke="#2db572" stroke-width="4.0" fill="none" stroke-linecap="round" stroke-linejoin="round" />
<path d="M1969.0,383.5 L1969.0,389.5 Q1969.0,399.5,1959.0,399.5 L1806.5,399.5" stroke="#2db572" stroke-width="4.0" fill="none" stroke-linecap="round" stroke-linejoin="round" />
<path d="M1972.0,343.5 L1969.0,383.5" stroke="#2db572" stroke-width="4.0" stroke-linecap="round" />
<path d="M1969.0,254.0 L1969.0,343.5" stroke="#f5c542" stroke-width="4.0" stroke-linecap="round" />
<path d="M2029.0,254.0 L1969.0,343.5" stroke="#f5c542" stroke-width="4.0" stroke-linecap="round" />
<path d="M1972.0,160.0 L1972.0,254.0" stroke="#2db572" stroke-width="4.0" stroke-linecap="round" />
<path d="M1969.0,160.0 L1969.0,254.0" stroke="#f5c542" stroke-width="4.0" stroke-linecap="round" />
<path d="M1972.0,160.0 L2032.0,254.0" stroke="#2db572" stroke-width="4.0" stroke-linecap="round" />
<path d="M1969.0,160.0 L2029.0,254.0" stroke="#f5c542" stroke-width="4.0" stroke-linecap="round" />
<path d="M80.0,123.0 L140.0,123.0" stroke="#457b9d" stroke-width="4.0" stroke-linecap="round" />
<path d="M140.0,123.0 L200.0,123.0" stroke="#457b9d" stroke-width="4.0" stroke-linecap="round" />
<path d="M358.0,123.0 L418.0,123.0" stroke="#457b9d" stroke-width="4.0" stroke-linecap="round" />
<path d="M418.0,123.0 L478.0,123.0" stroke="#457b9d" stroke-width="4.0" stroke-linecap="round" />
<path d="M478.0,123.0 L538.0,123.0" stroke="#457b9d" stroke-width="4.0" stroke-linecap="round" />
<path d="M200.0,123.0 L250.0,123.0" stroke="#457b9d" stroke-width="4.0" stroke-linecap="round" />
<path d="M300.0,123.0 L358.0,123.0" stroke="#457b9d" stroke-width="4.0" stroke-linecap="round" />
<path d="M1667.0,123.0 L1756.5,123.0" stroke="#457b9d" stroke-width="4.0" stroke-linecap="round" />
<path d="M478.0,123.0 L588.0,123.0" stroke="#457b9d" stroke-width="4.0" stroke-linecap="round" />
<path d="M714.0,123.0 L863.5,123.0" stroke="#457b9d" stroke-width="4.0" stroke-linecap="round" />
<path d="M478.0,123.0 L588.0,123.0" stroke="#457b9d" stroke-width="4.0" stroke-linecap="round" />
<path d="M774.0,123.0 L863.5,123.0" stroke="#457b9d" stroke-width="4.0" stroke-linecap="round" />
<path d="M250.0,123.0 L260.0,123.0" stroke="#457b9d" stroke-width="4.0" stroke-linecap="round" />
<path d="M260.0,123.0 L300.0,123.0" stroke="#457b9d" stroke-width="4.0" stroke-linecap="round" />
<path d="M588.0,123.0 L598.0,123.0" stroke="#457b9d" stroke-width="4.0" stroke-linecap="round" />
<path d="M598.0,123.0 L598.0,123.0 Q608.0,123.0,608.0,133.0 L608.0,1522.5 Q608.0,1541.5,627.0,1541.5 L1138.0,1541.5 Q1157.0,1541.5,1157.0,1522.5 L1157.0,1129.5 Q1157.0,1110.5,1176.0,1110.5 L1356.5,1110.5" stroke="#457b9d" stroke-width="4.0" fill="none" stroke-linecap="round" stroke-linejoin="round" />
<path d="M598.0,123.0 L598.0,123.0 Q608.0,123.0,608.0,133.0 L608.0,1522.5 Q608.0,1541.5,627.0,1541.5 L1138.0,1541.5 Q1157.0,1541.5,1157.0,1522.5 L1157.0,1129.5 Q1157.0,1110.5,1176.0,1110.5 L1356.5,1110.5" stroke="#457b9d" stroke-width="4.0" fill="none" stroke-linecap="round" stroke-linejoin="round" />
<path d="M863.5,123.0 L873.5,123.0" stroke="#457b9d" stroke-width="4.0" stroke-linecap="round" />
<path d="M873.5,123.0 L878.0,123.0 Q888.0,123.0,888.0,133.0 L888.0,1097.5 Q888.0,1110.5,901.0,1110.5 L1356.5,1110.5" stroke="#457b9d" stroke-width="4.0" fill="none" stroke-linecap="round" stroke-linejoin="round" />
<path d="M873.5,123.0 L878.0,123.0 Q888.0,123.0,888.0,133.0 L888.0,1097.5 Q888.0,1110.5,901.0,1110.5 L1356.5,1110.5" stroke="#457b9d" stroke-width="4.0" fill="none" stroke-linecap="round" stroke-linejoin="round" />
<path d="M1756.5,123.0 L1766.5,123.0" stroke="#457b9d" stroke-width="4.0" stroke-linecap="round" />
<path d="M1766.5,123.0 L1772.5,123.0 Q1782.5,123.0,1782.5,133.0 L1782.5,1084.5 Q1782.5,1100.5,1798.5,1100.5 L1904.0,1100.5" stroke="#457b9d" stroke-width="4.0" fill="none" stroke-linecap="round" stroke-linejoin="round" />
<path d="M80.0,120.0 L140.0,120.0" stroke="#2db572" stroke-width="4.0" stroke-linecap="round" />
<path d="M140.0,120.0 L200.0,120.0" stroke="#2db572" stroke-width="4.0" stroke-linecap="round" />
<path d="M358.0,120.0 L418.0,120.0" stroke="#2db572" stroke-width="4.0" stroke-linecap="round" />
<path d="M418.0,120.0 L478.0,120.0" stroke="#2db572" stroke-width="4.0" stroke-linecap="round" />
<path d="M478.0,120.0 L538.0,120.0" stroke="#2db572" stroke-width="4.0" stroke-linecap="round" />
<path d="M714.0,120.0 L774.0,120.0" stroke="#2db572" stroke-width="4.0" stroke-linecap="round" />
<path d="M1234.0,120.0 L1294.0,120.0" stroke="#2db572" stroke-width="4.0" stroke-linecap="round" />
<path d="M1607.0,120.0 L1667.0,120.0" stroke="#2db572" stroke-width="4.0" stroke-linecap="round" />
<path d="M200.0,120.0 L250.0,120.0" stroke="#2db572" stroke-width="4.0" stroke-linecap="round" />
<path d="M300.0,120.0 L358.0,120.0" stroke="#2db572" stroke-width="4.0" stroke-linecap="round" />
<path d="M538.0,120.0 L588.0,120.0" stroke="#2db572" stroke-width="4.0" stroke-linecap="round" />
<path d="M638.0,120.0 L714.0,120.0" stroke="#2db572" stroke-width="4.0" stroke-linecap="round" />
<path d="M774.0,120.0 L863.5,120.0" stroke="#2db572" stroke-width="4.0" stroke-linecap="round" />
<path d="M1162.5,120.0 L1234.0,120.0" stroke="#2db572" stroke-width="4.0" stroke-linecap="round" />
<path d="M1294.0,120.0 L1356.5,120.0" stroke="#2db572" stroke-width="4.0" stroke-linecap="round" />
<path d="M1540.0,120.0 L1607.0,120.0" stroke="#2db572" stroke-width="4.0" stroke-linecap="round" />
<path d="M1667.0,120.0 L1756.5,120.0" stroke="#2db572" stroke-width="4.0" stroke-linecap="round" />
<path d="M1806.5,120.0 L1959.0,120.0 Q1972.0,120.0,1972.0,133.0 L1972.0,160.0" stroke="#2db572" stroke-width="4.0" fill="none" stroke-linecap="round" stroke-linejoin="round" />
<path d="M1667.0,120.0 L1756.5,120.0" stroke="#2db572" stroke-width="4.0" stroke-linecap="round" />
<path d="M1667.0,120.0 L1756.5,120.0" stroke="#2db572" stroke-width="4.0" stroke-linecap="round" />
<path d="M80.0,120.0 L250.0,120.0" stroke="#2db572" stroke-width="4.0" stroke-linecap="round" />
<path d="M538.0,120.0 L588.0,120.0" stroke="#2db572" stroke-width="4.0" stroke-linecap="round" />
<path d="M1667.0,120.0 L1756.5,120.0" stroke="#2db572" stroke-width="4.0" stroke-linecap="round" />
<path d="M250.0,120.0 L260.0,120.0" stroke="#2db572" stroke-width="4.0" stroke-linecap="round" />
<path d="M260.0,120.0 L300.0,120.0" stroke="#2db572" stroke-width="4.0" stroke-linecap="round" />
<path d="M260.0,120.0 L260.0,120.0 Q270.0,120.0,270.0,130.0 L270.0,170.0 Q270.0,180.0,280.0,180.0 L616.0,180.0 Q626.0,180.0,626.0,190.0 L626.0,1367.5 Q626.0,1377.5,636.0,1377.5 L1336.5,1377.5" stroke="#2db572" stroke-width="4.0" fill="none" stroke-linecap="round" stroke-linejoin="round" />
<path d="M588.0,120.0 L598.0,120.0" stroke="#2db572" stroke-width="4.0" stroke-linecap="round" />
<path d="M598.0,120.0 L638.0,120.0" stroke="#2db572" stroke-width="4.0" stroke-linecap="round" />
<path d="M598.0,120.0 L604.0,120.0 Q620.0,120.0,620.0,136.0 L620.0,1367.5 Q620.0,1377.5,630.0,1377.5 L1336.5,1377.5" stroke="#2db572" stroke-width="4.0" fill="none" stroke-linecap="round" stroke-linejoin="round" />
<path d="M863.5,120.0 L873.5,120.0" stroke="#2db572" stroke-width="4.0" stroke-linecap="round" />
<path d="M873.5,120.0 L1162.5,120.0" stroke="#2db572" stroke-width="4.0" stroke-linecap="round" />
<path d="M1356.5,120.0 L1540.0,120.0" stroke="#2db572" stroke-width="4.0" stroke-linecap="round" />
<path d="M1756.5,120.0 L1766.5,120.0" stroke="#2db572" stroke-width="4.0" stroke-linecap="round" />
<path d="M1766.5,120.0 L1806.5,120.0" stroke="#2db572" stroke-width="4.0" stroke-linecap="round" />
<path d="M1766.5,120.0 L1772.5,120.0 Q1788.5,120.0,1788.5,136.0 L1788.5,571.5 Q1788.5,581.5,1798.5,581.5 L1841.0,581.5" stroke="#2db572" stroke-width="4.0" fill="none" stroke-linecap="round" stroke-linejoin="round" />
<path d="M1766.5,120.0 L1772.5,120.0 Q1785.5,120.0,1785.5,133.0 L1785.5,846.5 Q1785.5,859.5,1798.5,859.5 L1904.0,859.5" stroke="#2db572" stroke-width="4.0" fill="none" stroke-linecap="round" stroke-linejoin="round" />
<path d="M1766.5,120.0 L1404.5,120.0 Q1394.5,120.0,1394.5,130.0 L1394.5,1157.5 Q1394.5,1167.5,1384.5,1167.5 L1371.5,1167.5 Q1361.5,1167.5,1361.5,1177.5 L1361.5,1367.5 Q1361.5,1377.5,1351.5,1377.5 L1336.5,1377.5" stroke="#2db572" stroke-width="4.0" fill="none" stroke-linecap="round" stroke-linejoin="round" />
<rect x="134.0" y="114.0" width="12.0" height="15.0" rx="6.0" ry="6.0" fill="#ffffff" stroke="#333333" stroke-width="2.0" />
<rect x="194.0" y="114.0" width="12.0" height="15.0" rx="6.0" ry="6.0" fill="#ffffff" stroke="#333333" stroke-width="2.0" />
<rect x="352.0" y="114.0" width="12.0" height="15.0" rx="6.0" ry="6.0" fill="#ffffff" stroke="#333333" stroke-width="2.0" />
<rect x="412.0" y="114.0" width="12.0" height="15.0" rx="6.0" ry="6.0" fill="#ffffff" stroke="#333333" stroke-width="2.0" />
<rect x="472.0" y="114.0" width="12.0" height="15.0" rx="6.0" ry="6.0" fill="#ffffff" stroke="#333333" stroke-width="2.0" />
<rect x="532.0" y="114.0" width="12.0" height="15.0" rx="6.0" ry="6.0" fill="#ffffff" stroke="#333333" stroke-width="2.0" />
<rect x="708.0" y="114.0" width="12.0" height="15.0" rx="6.0" ry="6.0" fill="#ffffff" stroke="#333333" stroke-width="2.0" />
<rect x="768.0" y="114.0" width="12.0" height="15.0" rx="6.0" ry="6.0" fill="#ffffff" stroke="#333333" stroke-width="2.0" />
<rect x="1228.0" y="114.0" width="12.0" height="12.0" rx="6.0" ry="6.0" fill="#ffffff" stroke="#333333" stroke-width="2.0" />
<rect x="1288.0" y="114.0" width="12.0" height="12.0" rx="6.0" ry="6.0" fill="#ffffff" stroke="#333333" stroke-width="2.0" />
<rect x="1601.0" y="114.0" width="12.0" height="12.0" rx="6.0" ry="6.0" fill="#ffffff" stroke="#333333" stroke-width="2.0" />
<rect x="1661.0" y="114.0" width="12.0" height="15.0" rx="6.0" ry="6.0" fill="#ffffff" stroke="#333333" stroke-width="2.0" />
<rect x="1963.0" y="154.0" width="15.0" height="12.0" rx="6.0" ry="6.0" fill="#ffffff" stroke="#333333" stroke-width="2.0" />
<rect x="1963.0" y="248.0" width="15.0" height="12.0" rx="6.0" ry="6.0" fill="#ffffff" stroke="#333333" stroke-width="2.0" />
<rect x="2023.0" y="248.0" width="15.0" height="12.0" rx="6.0" ry="6.0" fill="#ffffff" stroke="#333333" stroke-width="2.0" />
<rect x="1963.0" y="337.5" width="15.0" height="12.0" rx="6.0" ry="6.0" fill="#ffffff" stroke="#333333" stroke-width="2.0" />
<rect x="1963.0" y="377.5" width="12.0" height="12.0" rx="6.0" ry="6.0" fill="#ffffff" stroke="#333333" stroke-width="2.0" />
<rect x="2023.0" y="575.5" width="12.0" height="12.0" rx="6.0" ry="6.0" fill="#ffffff" stroke="#333333" stroke-width="2.0" />
<rect x="2023.0" y="615.5" width="12.0" height="12.0" rx="6.0" ry="6.0" fill="#ffffff" stroke="#333333" stroke-width="2.0" />
<rect x="2023.0" y="655.5" width="12.0" height="12.0" rx="6.0" ry="6.0" fill="#ffffff" stroke="#333333" stroke-width="2.0" />
<rect x="2023.0" y="853.5" width="12.0" height="12.0" rx="6.0" ry="6.0" fill="#ffffff" stroke="#333333" stroke-width="2.0" />
<rect x="2023.0" y="893.5" width="12.0" height="12.0" rx="6.0" ry="6.0" fill="#ffffff" stroke="#333333" stroke-width="2.0" />
<rect x="1670.0" y="1107.5" width="12.0" height="12.0" rx="6.0" ry="6.0" fill="#ffffff" stroke="#333333" stroke-width="2.0" />
<rect x="1610.0" y="1107.5" width="12.0" height="12.0" rx="6.0" ry="6.0" fill="#ffffff" stroke="#333333" stroke-width="2.0" />
<rect x="1550.0" y="1107.5" width="12.0" height="12.0" rx="6.0" ry="6.0" fill="#ffffff" stroke="#333333" stroke-width="2.0" />
<rect x="1490.0" y="1101.5" width="12.0" height="18.0" rx="6.0" ry="6.0" fill="#ffffff" stroke="#333333" stroke-width="2.0" />
<rect x="2026.0" y="1091.5" width="12.0" height="12.0" rx="6.0" ry="6.0" fill="#ffffff" stroke="#333333" stroke-width="2.0" />
<rect x="2026.0" y="1131.5" width="12.0" height="12.0" rx="6.0" ry="6.0" fill="#ffffff" stroke="#333333" stroke-width="2.0" />
<rect x="2026.0" y="1171.5" width="12.0" height="12.0" rx="6.0" ry="6.0" fill="#ffffff" stroke="#333333" stroke-width="2.0" />
<rect x="1252.0" y="1104.5" width="12.0" height="12.0" rx="6.0" ry="6.0" fill="#ffffff" stroke="#333333" stroke-width="2.0" />
<rect x="1192.0" y="1104.5" width="12.0" height="12.0" rx="6.0" ry="6.0" fill="#ffffff" stroke="#333333" stroke-width="2.0" />
<rect x="1132.0" y="1104.5" width="12.0" height="12.0" rx="6.0" ry="6.0" fill="#ffffff" stroke="#333333" stroke-width="2.0" />
<rect x="1013.5" y="1104.5" width="12.0" height="12.0" rx="6.0" ry="6.0" fill="#ffffff" stroke="#333333" stroke-width="2.0" />
<rect x="718.0" y="1291.5" width="12.0" height="12.0" rx="6.0" ry="6.0" fill="#ffffff" stroke="#333333" stroke-width="2.0" />
<rect x="718.0" y="1331.5" width="12.0" height="12.0" rx="6.0" ry="6.0" fill="#ffffff" stroke="#333333" stroke-width="2.0" />
<rect x="718.0" y="1371.5" width="12.0" height="12.0" rx="6.0" ry="6.0" fill="#ffffff" stroke="#333333" stroke-width="2.0" />
<rect x="718.0" y="1411.5" width="12.0" height="12.0" rx="6.0" ry="6.0" fill="#ffffff" stroke="#333333" stroke-width="2.0" />
<rect x="718.0" y="1454.5" width="12.0" height="12.0" rx="6.0" ry="6.0" fill="#ffffff" stroke="#333333" stroke-width="2.0" />
<rect x="688.0" y="1187.5" width="12.0" height="18.0" rx="6.0" ry="6.0" fill="#ffffff" stroke="#333333" stroke-width="2.0" />
<text x="358.0" y="134.0" font-size="14.0" fill="#333333" font-family="'Helvetica Neue', Helvetica, Arial, sans-serif" font-weight="bold" text-anchor="middle" dominant-baseline="hanging">Salmon Index</text>
<text x="714.0" y="134.0" font-size="14.0" fill="#333333" font-family="'Helvetica Neue', Helvetica, Arial, sans-serif" font-weight="bold" text-anchor="middle" dominant-baseline="hanging">MMseqs2 Taxonomy</text>
<text x="1234.0" y="131.0" font-size="14.0" fill="#333333" font-family="'Helvetica Neue', Helvetica, Arial, sans-serif" font-weight="bold" text-anchor="middle" dominant-baseline="hanging">Minimap2 Splice</text>
<text x="1607.0" y="131.0" font-size="14.0" fill="#333333" font-family="'Helvetica Neue', Helvetica, Arial, sans-serif" font-weight="bold" text-anchor="middle" dominant-baseline="hanging">Diamond BLASTX</text>
<text x="1956.5" y="160.0" font-size="14.0" fill="#333333" font-family="'Helvetica Neue', Helvetica, Arial, sans-serif" font-weight="bold" text-anchor="end" dominant-baseline="central">TD2 LongOrfs</text>
<text x="2018.0" y="581.5" font-size="14.0" fill="#333333" font-family="'Helvetica Neue', Helvetica, Arial, sans-serif" font-weight="bold" text-anchor="end" dominant-baseline="central">MetaEuk Predict</text>
<text x="2018.0" y="859.5" font-size="14.0" fill="#333333" font-family="'Helvetica Neue', Helvetica, Arial, sans-serif" font-weight="bold" text-anchor="end" dominant-baseline="central">GeneMarkS-T</text>
<text x="1676.0" y="1124.5" font-size="14.0" fill="#333333" font-family="'Helvetica Neue', Helvetica, Arial, sans-serif" font-weight="bold" text-anchor="middle" dominant-baseline="hanging">Merge Predictions</text>
<text x="2018.0" y="1097.5" font-size="14.0" fill="#333333" font-family="'Helvetica Neue', Helvetica, Arial, sans-serif" font-weight="bold" text-anchor="end" dominant-baseline="central">Salmon Index</text>
<text x="1258.0" y="1121.5" font-size="14.0" fill="#333333" font-family="'Helvetica Neue', Helvetica, Arial, sans-serif" font-weight="bold" text-anchor="middle" dominant-baseline="hanging">Decontaminate Trinity</text>
<text x="724.0" y="1307.9" font-size="14.0" fill="#333333" font-family="'Helvetica Neue', Helvetica, Arial, sans-serif" font-weight="bold" text-anchor="middle" dominant-baseline="hanging">BUSCO Trinity</text>
<text x="694.0" y="1179.5" font-size="14.0" fill="#333333" font-family="'Helvetica Neue', Helvetica, Arial, sans-serif" font-weight="bold" text-anchor="middle" dominant-baseline="auto">Thinning Report</text>
<text x="724.0" y="1347.9" font-size="14.0" fill="#333333" font-family="'Helvetica Neue', Helvetica, Arial, sans-serif" font-weight="bold" text-anchor="middle" dominant-baseline="hanging">BUSCO Reps</text>
<text x="724.0" y="1387.9" font-size="14.0" fill="#333333" font-family="'Helvetica Neue', Helvetica, Arial, sans-serif" font-weight="bold" text-anchor="middle" dominant-baseline="hanging">BUSCO Corrected</text>
<text x="724.0" y="1428.5" font-size="14.0" fill="#333333" font-family="'Helvetica Neue', Helvetica, Arial, sans-serif" font-weight="bold" text-anchor="middle" dominant-baseline="hanging">BUSCO Proteins</text>
<text x="724.0" y="1471.5" font-size="14.0" fill="#333333" font-family="'Helvetica Neue', Helvetica, Arial, sans-serif" font-weight="bold" text-anchor="middle" dominant-baseline="hanging">TransAnnot</text>
<text x="140.0" y="106.0" font-size="14.0" fill="#333333" font-family="'Helvetica Neue', Helvetica, Arial, sans-serif" font-weight="bold" text-anchor="middle" dominant-baseline="auto">SortMeRNA Index</text>
<text x="418.0" y="106.0" font-size="14.0" fill="#333333" font-family="'Helvetica Neue', Helvetica, Arial, sans-serif" font-weight="bold" text-anchor="middle" dominant-baseline="auto">Salmon Quant</text>
<text x="774.0" y="106.0" font-size="14.0" fill="#333333" font-family="'Helvetica Neue', Helvetica, Arial, sans-serif" font-weight="bold" text-anchor="middle" dominant-baseline="auto">MMseqs2 Cluster 90%</text>
<text x="1294.0" y="106.0" font-size="14.0" fill="#333333" font-family="'Helvetica Neue', Helvetica, Arial, sans-serif" font-weight="bold" text-anchor="middle" dominant-baseline="auto">Locus Cluster</text>
<text x="1667.0" y="106.0" font-size="14.0" fill="#333333" font-family="'Helvetica Neue', Helvetica, Arial, sans-serif" font-weight="bold" text-anchor="middle" dominant-baseline="auto">Correct Frameshifts</text>
<text x="1956.5" y="254.0" font-size="14.0" fill="#333333" font-family="'Helvetica Neue', Helvetica, Arial, sans-serif" font-weight="bold" text-anchor="end" dominant-baseline="central">SwissProt Search</text>
<text x="2018.0" y="621.5" font-size="14.0" fill="#333333" font-family="'Helvetica Neue', Helvetica, Arial, sans-serif" font-weight="bold" text-anchor="end" dominant-baseline="central">MetaEuk Select Best</text>
<text x="2018.0" y="899.5" font-size="14.0" fill="#333333" font-family="'Helvetica Neue', Helvetica, Arial, sans-serif" font-weight="bold" text-anchor="end" dominant-baseline="central">PSAURON GMST</text>
<text x="1616.0" y="1099.5" font-size="14.0" fill="#333333" font-family="'Helvetica Neue', Helvetica, Arial, sans-serif" font-weight="bold" text-anchor="middle" dominant-baseline="auto">HMMER Extend</text>
<text x="2018.0" y="1137.5" font-size="14.0" fill="#333333" font-family="'Helvetica Neue', Helvetica, Arial, sans-serif" font-weight="bold" text-anchor="end" dominant-baseline="central">Salmon Quant</text>
<text x="1198.0" y="1096.5" font-size="14.0" fill="#333333" font-family="'Helvetica Neue', Helvetica, Arial, sans-serif" font-weight="bold" text-anchor="middle" dominant-baseline="auto">Salmon Index</text>
<text x="2016.5" y="254.0" font-size="14.0" fill="#333333" font-family="'Helvetica Neue', Helvetica, Arial, sans-serif" font-weight="bold" text-anchor="end" dominant-baseline="central">Pfam Search</text>
<text x="200.0" y="134.0" font-size="14.0" fill="#333333" font-family="'Helvetica Neue', Helvetica, Arial, sans-serif" font-weight="bold" text-anchor="middle" dominant-baseline="hanging">SortMeRNA</text>
<text x="478.0" y="134.0" font-size="14.0" fill="#333333" font-family="'Helvetica Neue', Helvetica, Arial, sans-serif" font-weight="bold" text-anchor="middle" dominant-baseline="hanging">Corset</text>
<text x="1956.5" y="343.5" font-size="14.0" fill="#333333" font-family="'Helvetica Neue', Helvetica, Arial, sans-serif" font-weight="bold" text-anchor="end" dominant-baseline="central">TD2 Predict</text>
<text x="2018.0" y="661.5" font-size="14.0" fill="#333333" font-family="'Helvetica Neue', Helvetica, Arial, sans-serif" font-weight="bold" text-anchor="end" dominant-baseline="central">PSAURON MetaEuk</text>
<text x="1556.0" y="1090.5" font-size="14.0" fill="#333333" font-family="'Helvetica Neue', Helvetica, Arial, sans-serif" font-weight="bold" text-anchor="middle" dominant-baseline="auto">Filter Unmapped</text>
<text x="2018.0" y="1177.5" font-size="14.0" fill="#333333" font-family="'Helvetica Neue', Helvetica, Arial, sans-serif" font-weight="bold" text-anchor="end" dominant-baseline="central">Validate IDs</text>
<text x="1138.0" y="1090.5" font-size="14.0" fill="#333333" font-family="'Helvetica Neue', Helvetica, Arial, sans-serif" font-weight="bold" text-anchor="middle" dominant-baseline="auto">Salmon Quant</text>
<text x="538.0" y="106.0" font-size="14.0" fill="#333333" font-family="'Helvetica Neue', Helvetica, Arial, sans-serif" font-weight="bold" text-anchor="middle" dominant-baseline="auto">Select Rep</text>
<text x="1958.0" y="383.5" font-size="14.0" fill="#333333" font-family="'Helvetica Neue', Helvetica, Arial, sans-serif" font-weight="bold" text-anchor="end" dominant-baseline="central">Select Best ORF</text>
<text x="1496.0" y="1124.5" font-size="14.0" fill="#333333" font-family="'Helvetica Neue', Helvetica, Arial, sans-serif" font-weight="bold" text-anchor="middle" dominant-baseline="hanging">MMseqs2 Cluster 95%</text>
<text x="1019.5" y="1096.5" font-size="14.0" fill="#333333" font-family="'Helvetica Neue', Helvetica, Arial, sans-serif" font-weight="bold" text-anchor="middle" dominant-baseline="auto">Build tx2gene</text>
<rect x="30.0" y="1571.5" width="167.51999999999998" height="96.0" rx="6" ry="6" fill="rgba(255, 255, 255, 0.8)" />
<path d="M42.0,1595.5 L66.0,1595.5" stroke="#2db572" stroke-width="4.0" stroke-linecap="round" />
<text x="78.0" y="1595.5" font-size="16.0" fill="#333333" font-family="'Helvetica Neue', Helvetica, Arial, sans-serif" dy="0.3em">Assembly</text>
<path d="M42.0,1619.5 L66.0,1619.5" stroke="#457b9d" stroke-width="4.0" stroke-linecap="round" />
<text x="78.0" y="1619.5" font-size="16.0" fill="#333333" font-family="'Helvetica Neue', Helvetica, Arial, sans-serif" dy="0.3em">Quantification</text>
<path d="M42.0,1643.5 L66.0,1643.5" stroke="#f5c542" stroke-width="4.0" stroke-linecap="round" />
<text x="78.0" y="1643.5" font-size="16.0" fill="#333333" font-family="'Helvetica Neue', Helvetica, Arial, sans-serif" dy="0.3em">Annotation</text>
<text x="2109.0" y="1683.0" font-size="8" fill="rgba(150, 150, 150, 0.6)" font-family="'Helvetica Neue', Helvetica, Arial, sans-serif" text-anchor="end">created with nf-metro v0.5.4</text>
</svg>
