<?xml version="1.0" encoding="UTF-8"?>
<svg xmlns="http://www.w3.org/2000/svg" xmlns:xlink="http://www.w3.org/1999/xlink"
     width="2025" height="638" viewBox="0 0 2025 638">
<defs>
</defs>
<style>@media (prefers-color-scheme: dark) {
    .nf-metro-section-label { fill: #d0d0d0; }
    .nf-metro-section-num-circle { fill: #777777; }
    .nf-metro-title { fill: #ffffff; }
}
</style>
<text x="60.0" y="30.0" font-size="26.0" fill="#111111" font-family="'Helvetica Neue', Helvetica, Arial, sans-serif" font-weight="bold" class="nf-metro-title">nf-denovoslim</text>
<rect x="30.0" y="85.0" width="170.0" height="70.0" rx="8" ry="8" fill="#ededed" stroke="#e6e6e6" stroke-width="1.0" />
<circle cx="41.0" cy="70.0" r="11" fill="#333333" class="nf-metro-section-num-circle" />
<text x="41.0" y="70.0" font-size="12" fill="#ffffff" font-family="'Helvetica Neue', Helvetica, Arial, sans-serif" font-weight="bold" text-anchor="middle" dy="0.3em">1</text>
<text x="57.0" y="70.0" font-size="17.0" fill="#666666" font-family="'Helvetica Neue', Helvetica, Arial, sans-serif" font-weight="bold" dy="0.3em" class="nf-metro-section-label">Pre-processing</text>
<rect x="260.0" y="85.0" width="248.0" height="70.0" rx="8" ry="8" fill="#ededed" stroke="#e6e6e6" stroke-width="1.0" />
<circle cx="271.0" cy="70.0" r="11" fill="#333333" class="nf-metro-section-num-circle" />
<text x="271.0" y="70.0" font-size="12" fill="#ffffff" font-family="'Helvetica Neue', Helvetica, Arial, sans-serif" font-weight="bold" text-anchor="middle" dy="0.3em">2</text>
<text x="287.0" y="70.0" font-size="17.0" fill="#666666" font-family="'Helvetica Neue', Helvetica, Arial, sans-serif" font-weight="bold" dy="0.3em" class="nf-metro-section-label">Transcript Clustering</text>
<rect x="568.0" y="85.0" width="274.0" height="70.0" rx="8" ry="8" fill="#ededed" stroke="#e6e6e6" stroke-width="1.0" />
<circle cx="579.0" cy="70.0" r="11" fill="#333333" class="nf-metro-section-num-circle" />
<text x="579.0" y="70.0" font-size="12" fill="#ffffff" font-family="'Helvetica Neue', Helvetica, Arial, sans-serif" font-weight="bold" text-anchor="middle" dy="0.3em">3</text>
<text x="595.0" y="70.0" font-size="17.0" fill="#666666" font-family="'Helvetica Neue', Helvetica, Arial, sans-serif" font-weight="bold" dy="0.3em" class="nf-metro-section-label">Filtering &amp; Reduction</text>
<rect x="972.0" y="85.0" width="226.5" height="70.0" rx="8" ry="8" fill="#ededed" stroke="#e6e6e6" stroke-width="1.0" />
<circle cx="983.0" cy="70.0" r="11" fill="#333333" class="nf-metro-section-num-circle" />
<text x="983.0" y="70.0" font-size="12" fill="#ffffff" font-family="'Helvetica Neue', Helvetica, Arial, sans-serif" font-weight="bold" text-anchor="middle" dy="0.3em">4</text>
<text x="999.0" y="70.0" font-size="17.0" fill="#666666" font-family="'Helvetica Neue', Helvetica, Arial, sans-serif" font-weight="bold" dy="0.3em" class="nf-metro-section-label">Frameshift Correction</text>
<rect x="1273.0" y="85.0" width="394.0" height="160.0" rx="8" ry="8" fill="#ededed" stroke="#e6e6e6" stroke-width="1.0" />
<circle cx="1284.0" cy="70.0" r="11" fill="#333333" class="nf-metro-section-num-circle" />
<text x="1284.0" y="70.0" font-size="12" fill="#ffffff" font-family="'Helvetica Neue', Helvetica, Arial, sans-serif" font-weight="bold" text-anchor="middle" dy="0.3em">5</text>
<text x="1300.0" y="70.0" font-size="17.0" fill="#666666" font-family="'Helvetica Neue', Helvetica, Arial, sans-serif" font-weight="bold" dy="0.3em" class="nf-metro-section-label">ORF Prediction</text>
<rect x="1727.0" y="85.0" width="238.0" height="370.0" rx="8" ry="8" fill="#ededed" stroke="#e6e6e6" stroke-width="1.0" />
<circle cx="1738.0" cy="70.0" r="11" fill="#333333" class="nf-metro-section-num-circle" />
<text x="1738.0" y="70.0" font-size="12" fill="#ffffff" font-family="'Helvetica Neue', Helvetica, Arial, sans-serif" font-weight="bold" text-anchor="middle" dy="0.3em">6</text>
<text x="1754.0" y="70.0" font-size="17.0" fill="#666666" font-family="'Helvetica Neue', Helvetica, Arial, sans-serif" font-weight="bold" dy="0.3em" class="nf-metro-section-label">Merge &amp; Refinement</text>
<rect x="1258.5" y="295.0" width="408.5" height="115.0" rx="8" ry="8" fill="#ededed" stroke="#e6e6e6" stroke-width="1.0" />
<circle cx="1269.5" cy="280.0" r="11" fill="#333333" class="nf-metro-section-num-circle" />
<text x="1269.5" y="280.0" font-size="12" fill="#ffffff" font-family="'Helvetica Neue', Helvetica, Arial, sans-serif" font-weight="bold" text-anchor="middle" dy="0.3em">7</text>
<text x="1285.5" y="280.0" font-size="17.0" fill="#666666" font-family="'Helvetica Neue', Helvetica, Arial, sans-serif" font-weight="bold" dy="0.3em" class="nf-metro-section-label">Quantification</text>
<rect x="902.0" y="295.0" width="296.5" height="160.0" rx="8" ry="8" fill="#ededed" stroke="#e6e6e6" stroke-width="1.0" />
<circle cx="913.0" cy="280.0" r="11" fill="#333333" class="nf-metro-section-num-circle" />
<text x="913.0" y="280.0" font-size="12" fill="#ffffff" font-family="'Helvetica Neue', Helvetica, Arial, sans-serif" font-weight="bold" text-anchor="middle" dy="0.3em">8</text>
<text x="929.0" y="280.0" font-size="17.0" fill="#666666" font-family="'Helvetica Neue', Helvetica, Arial, sans-serif" font-weight="bold" dy="0.3em" class="nf-metro-section-label">QC &amp; Output</text>
<path d="M1131.5,420.0 L1101.5,420.0 Q1091.5,420.0,1085.9529980377476,411.6794970566216 L1067.0470019622524,383.3205029433784 Q1061.5,375.0,1051.5,375.0 L994.0,375.0" stroke="#f5c542" stroke-width="4.0" fill="none" stroke-linecap="round" stroke-linejoin="round" />
<path d="M1198.5,381.0 L1193.5,381.0 Q1183.5,381.0,1177.9529980377476,372.6794970566216 L1159.0470019622524,344.3205029433784 Q1153.5,336.0,1143.5,336.0 L1131.5,336.0" stroke="#2db572" stroke-width="4.0" fill="none" stroke-linecap="round" stroke-linejoin="round" />
<path d="M1591.0,378.0 L1521.0,378.0" stroke="#457b9d" stroke-width="4.0" stroke-linecap="round" />
<path d="M1521.0,378.0 L1392.5,378.0" stroke="#457b9d" stroke-width="4.0" stroke-linecap="round" />
<path d="M1198.5,378.0 L1131.5,378.0" stroke="#457b9d" stroke-width="4.0" stroke-linecap="round" />
<path d="M1392.5,378.0 L1258.5,378.0" stroke="#457b9d" stroke-width="4.0" stroke-linecap="round" />
<path d="M1198.5,378.0 L1131.5,378.0" stroke="#457b9d" stroke-width="4.0" stroke-linecap="round" />
<path d="M1258.5,378.0 L1198.5,378.0" stroke="#457b9d" stroke-width="4.0" stroke-linecap="round" />
<path d="M1258.5,378.0 L1198.5,378.0" stroke="#457b9d" stroke-width="4.0" stroke-linecap="round" />
<path d="M1131.5,378.0 L994.0,378.0" stroke="#457b9d" stroke-width="4.0" stroke-linecap="round" />
<path d="M1198.5,375.0 L1193.5,375.0 Q1183.5,375.0,1177.9529980377476,383.3205029433784 L1159.0470019622524,411.6794970566216 Q1153.5,420.0,1143.5,420.0 L1131.5,420.0" stroke="#f5c542" stroke-width="4.0" fill="none" stroke-linecap="round" stroke-linejoin="round" />
<path d="M1667.0,363.0 L1662.0,363.0 Q1652.0,363.0,1644.9289321881345,355.9289321881345 L1629.0710678118655,340.0710678118655 Q1622.0,333.0,1612.0,333.0 L1591.0,333.0" stroke="#457b9d" stroke-width="4.0" fill="none" stroke-linecap="round" stroke-linejoin="round" />
<path d="M1667.0,363.0 L1662.0,363.0 Q1652.0,363.0,1643.055728090001,367.4721359549996 L1630.944271909999,373.5278640450004 Q1622.0,378.0,1612.0,378.0 L1591.0,378.0" stroke="#457b9d" stroke-width="4.0" fill="none" stroke-linecap="round" stroke-linejoin="round" />
<path d="M1667.0,363.0 L1662.0,363.0 Q1652.0,363.0,1643.055728090001,367.4721359549996 L1630.944271909999,373.5278640450004 Q1622.0,378.0,1612.0,378.0 L1392.5,378.0" stroke="#457b9d" stroke-width="4.0" fill="none" stroke-linecap="round" stroke-linejoin="round" />
<path d="M1131.5,336.0 L1101.5,336.0 Q1091.5,336.0,1085.9529980377476,344.3205029433784 L1067.0470019622524,372.6794970566216 Q1061.5,381.0,1051.5,381.0 L994.0,381.0" stroke="#2db572" stroke-width="4.0" fill="none" stroke-linecap="round" stroke-linejoin="round" />
<path d="M1591.0,333.0 L1521.0,333.0" stroke="#457b9d" stroke-width="4.0" stroke-linecap="round" />
<path d="M1521.0,333.0 L1313.5,333.0 Q1303.5,333.0,1297.9529980377476,341.3205029433784 L1279.0470019622524,369.6794970566216 Q1273.5,378.0,1263.5,378.0 L1258.5,378.0" stroke="#457b9d" stroke-width="4.0" fill="none" stroke-linecap="round" stroke-linejoin="round" />
<path d="M1727.0,277.0 L1717.0,277.0" stroke="#2db572" stroke-width="4.0" stroke-linecap="round" />
<path d="M1717.0,277.0 L1714.0,277.0 Q1704.0,277.0,1704.0,287.0 L1704.0,425.0 Q1704.0,435.0,1694.0,435.0 L1225.5,435.0 Q1215.5,435.0,1215.5,425.0 L1215.5,391.0 Q1215.5,381.0,1205.5,381.0 L1198.5,381.0" stroke="#2db572" stroke-width="4.0" fill="none" stroke-linecap="round" stroke-linejoin="round" />
<path d="M1727.0,274.0 L1717.0,274.0" stroke="#457b9d" stroke-width="4.0" stroke-linecap="round" />
<path d="M1717.0,274.0 L1711.0,274.0 Q1698.0,274.0,1698.0,287.0 L1698.0,350.0 Q1698.0,363.0,1685.0,363.0 L1667.0,363.0" stroke="#457b9d" stroke-width="4.0" fill="none" stroke-linecap="round" stroke-linejoin="round" />
<path d="M1727.0,271.0 L1717.0,271.0" stroke="#f5c542" stroke-width="4.0" stroke-linecap="round" />
<path d="M1717.0,271.0 L1717.0,271.0 Q1707.0,271.0,1707.0,281.0 L1707.0,435.0 Q1707.0,451.0,1691.0,451.0 L1225.5,451.0 Q1209.5,451.0,1209.5,435.0 L1209.5,386.0 Q1209.5,375.0,1198.5,375.0 L1198.5,375.0" stroke="#f5c542" stroke-width="4.0" fill="none" stroke-linecap="round" stroke-linejoin="round" />
<path d="M1921.0,255.0 L1921.0,261.0 Q1921.0,277.0,1905.0,277.0 L1727.0,277.0" stroke="#2db572" stroke-width="4.0" fill="none" stroke-linecap="round" stroke-linejoin="round" />
<path d="M1918.0,255.0 L1918.0,261.0 Q1918.0,274.0,1905.0,274.0 L1727.0,274.0" stroke="#457b9d" stroke-width="4.0" fill="none" stroke-linecap="round" stroke-linejoin="round" />
<path d="M1915.0,255.0 L1915.0,261.0 Q1915.0,271.0,1905.0,271.0 L1727.0,271.0" stroke="#f5c542" stroke-width="4.0" fill="none" stroke-linecap="round" stroke-linejoin="round" />
<path d="M1915.0,210.0 L1921.0,255.0" stroke="#2db572" stroke-width="4.0" stroke-linecap="round" />
<path d="M1365.0,210.0 L1612.0,210.0 Q1622.0,210.0,1625.1622776601685,200.51316701949486 L1648.8377223398315,129.48683298050514 Q1652.0,120.0,1662.0,120.0 L1667.0,120.0" stroke="#2db572" stroke-width="4.0" fill="none" stroke-linecap="round" stroke-linejoin="round" />
<path d="M1915.0,165.0 L1915.0,210.0" stroke="#2db572" stroke-width="4.0" stroke-linecap="round" />
<path d="M1365.0,165.0 L1612.0,165.0 Q1622.0,165.0,1627.5470019622524,156.67949705662156 L1646.4529980377476,128.32050294337844 Q1652.0,120.0,1662.0,120.0 L1667.0,120.0" stroke="#2db572" stroke-width="4.0" fill="none" stroke-linecap="round" stroke-linejoin="round" />
<path d="M80.0,123.0 L150.0,123.0" stroke="#457b9d" stroke-width="4.0" stroke-linecap="round" />
<path d="M318.0,123.0 L388.0,123.0" stroke="#457b9d" stroke-width="4.0" stroke-linecap="round" />
<path d="M1365.0,123.0 L1435.0,123.0" stroke="#f5c542" stroke-width="4.0" stroke-linecap="round" />
<path d="M1435.0,123.0 L1505.0,123.0" stroke="#f5c542" stroke-width="4.0" stroke-linecap="round" />
<path d="M150.0,123.0 L200.0,123.0" stroke="#457b9d" stroke-width="4.0" stroke-linecap="round" />
<path d="M260.0,123.0 L318.0,123.0" stroke="#457b9d" stroke-width="4.0" stroke-linecap="round" />
<path d="M1109.0,123.0 L1198.5,123.0" stroke="#457b9d" stroke-width="4.0" stroke-linecap="round" />
<path d="M388.0,123.0 L508.0,123.0" stroke="#457b9d" stroke-width="4.0" stroke-linecap="round" />
<path d="M200.0,123.0 L260.0,123.0" stroke="#457b9d" stroke-width="4.0" stroke-linecap="round" />
<path d="M508.0,123.0 L518.0,123.0" stroke="#457b9d" stroke-width="4.0" stroke-linecap="round" />
<path d="M518.0,123.0 L518.0,123.0 Q528.0,123.0,528.0,133.0 L528.0,475.0 Q528.0,488.0,541.0,488.0 L1231.5,488.0 Q1244.5,488.0,1244.5,475.0 L1244.5,376.0 Q1244.5,363.0,1257.5,363.0 L1667.0,363.0" stroke="#457b9d" stroke-width="4.0" fill="none" stroke-linecap="round" stroke-linejoin="round" />
<path d="M1198.5,123.0 L1208.5,123.0" stroke="#457b9d" stroke-width="4.0" stroke-linecap="round" />
<path d="M1208.5,123.0 L1211.5,123.0 Q1221.5,123.0,1221.5,133.0 L1221.5,353.0 Q1221.5,363.0,1231.5,363.0 L1667.0,363.0" stroke="#457b9d" stroke-width="4.0" fill="none" stroke-linecap="round" stroke-linejoin="round" />
<path d="M80.0,120.0 L150.0,120.0" stroke="#2db572" stroke-width="4.0" stroke-linecap="round" />
<path d="M318.0,120.0 L388.0,120.0" stroke="#2db572" stroke-width="4.0" stroke-linecap="round" />
<path d="M388.0,120.0 L458.0,120.0" stroke="#2db572" stroke-width="4.0" stroke-linecap="round" />
<path d="M639.5,120.0 L709.5,120.0" stroke="#2db572" stroke-width="4.0" stroke-linecap="round" />
<path d="M709.5,120.0 L779.5,120.0" stroke="#2db572" stroke-width="4.0" stroke-linecap="round" />
<path d="M1039.0,120.0 L1109.0,120.0" stroke="#2db572" stroke-width="4.0" stroke-linecap="round" />
<path d="M1365.0,120.0 L1435.0,120.0" stroke="#2db572" stroke-width="4.0" stroke-linecap="round" />
<path d="M1505.0,120.0 L1575.0,120.0" stroke="#2db572" stroke-width="4.0" stroke-linecap="round" />
<path d="M150.0,120.0 L200.0,120.0" stroke="#2db572" stroke-width="4.0" stroke-linecap="round" />
<path d="M260.0,120.0 L318.0,120.0" stroke="#2db572" stroke-width="4.0" stroke-linecap="round" />
<path d="M458.0,120.0 L508.0,120.0" stroke="#2db572" stroke-width="4.0" stroke-linecap="round" />
<path d="M568.0,120.0 L639.5,120.0" stroke="#2db572" stroke-width="4.0" stroke-linecap="round" />
<path d="M779.5,120.0 L842.0,120.0" stroke="#2db572" stroke-width="4.0" stroke-linecap="round" />
<path d="M972.0,120.0 L1039.0,120.0" stroke="#2db572" stroke-width="4.0" stroke-linecap="round" />
<path d="M1109.0,120.0 L1198.5,120.0" stroke="#2db572" stroke-width="4.0" stroke-linecap="round" />
<path d="M1273.0,120.0 L1365.0,120.0" stroke="#2db572" stroke-width="4.0" stroke-linecap="round" />
<path d="M1109.0,120.0 L1198.5,120.0" stroke="#2db572" stroke-width="4.0" stroke-linecap="round" />
<path d="M1273.0,120.0 L1278.0,120.0 Q1288.0,120.0,1293.5470019622524,128.32050294337844 L1312.4529980377476,156.67949705662156 Q1318.0,165.0,1328.0,165.0 L1365.0,165.0" stroke="#2db572" stroke-width="4.0" fill="none" stroke-linecap="round" stroke-linejoin="round" />
<path d="M1109.0,120.0 L1198.5,120.0" stroke="#2db572" stroke-width="4.0" stroke-linecap="round" />
<path d="M1273.0,120.0 L1278.0,120.0 Q1288.0,120.0,1291.1622776601685,129.48683298050514 L1314.8377223398315,200.51316701949486 Q1318.0,210.0,1328.0,210.0 L1365.0,210.0" stroke="#2db572" stroke-width="4.0" fill="none" stroke-linecap="round" stroke-linejoin="round" />
<path d="M1575.0,120.0 L1667.0,120.0" stroke="#2db572" stroke-width="4.0" stroke-linecap="round" />
<path d="M1727.0,120.0 L1905.0,120.0 Q1915.0,120.0,1915.0,130.0 L1915.0,165.0" stroke="#2db572" stroke-width="4.0" fill="none" stroke-linecap="round" stroke-linejoin="round" />
<path d="M1727.0,120.0 L1905.0,120.0 Q1915.0,120.0,1915.0,130.0 L1915.0,165.0" stroke="#2db572" stroke-width="4.0" fill="none" stroke-linecap="round" stroke-linejoin="round" />
<path d="M1727.0,120.0 L1905.0,120.0 Q1915.0,120.0,1915.0,130.0 L1915.0,165.0" stroke="#2db572" stroke-width="4.0" fill="none" stroke-linecap="round" stroke-linejoin="round" />
<path d="M200.0,120.0 L260.0,120.0" stroke="#2db572" stroke-width="4.0" stroke-linecap="round" />
<path d="M508.0,120.0 L518.0,120.0" stroke="#2db572" stroke-width="4.0" stroke-linecap="round" />
<path d="M518.0,120.0 L568.0,120.0" stroke="#2db572" stroke-width="4.0" stroke-linecap="round" />
<path d="M842.0,120.0 L972.0,120.0" stroke="#2db572" stroke-width="4.0" stroke-linecap="round" />
<path d="M1198.5,120.0 L1208.5,120.0" stroke="#2db572" stroke-width="4.0" stroke-linecap="round" />
<path d="M1208.5,120.0 L1273.0,120.0" stroke="#2db572" stroke-width="4.0" stroke-linecap="round" />
<path d="M1208.5,120.0 L1273.0,120.0" stroke="#2db572" stroke-width="4.0" stroke-linecap="round" />
<path d="M1208.5,120.0 L1273.0,120.0" stroke="#2db572" stroke-width="4.0" stroke-linecap="round" />
<path d="M1667.0,120.0 L1727.0,120.0" stroke="#2db572" stroke-width="4.0" stroke-linecap="round" />
<path d="M1667.0,120.0 L1727.0,120.0" stroke="#2db572" stroke-width="4.0" stroke-linecap="round" />
<path d="M1667.0,120.0 L1727.0,120.0" stroke="#2db572" stroke-width="4.0" stroke-linecap="round" />
<rect x="144.0" y="114.0" width="12.0" height="15.0" rx="6.0" ry="6.0" fill="#ffffff" stroke="#333333" stroke-width="2.0" />
<rect x="312.0" y="114.0" width="12.0" height="15.0" rx="6.0" ry="6.0" fill="#ffffff" stroke="#333333" stroke-width="2.0" />
<rect x="382.0" y="114.0" width="12.0" height="15.0" rx="6.0" ry="6.0" fill="#ffffff" stroke="#333333" stroke-width="2.0" />
<rect x="452.0" y="114.0" width="12.0" height="12.0" rx="6.0" ry="6.0" fill="#ffffff" stroke="#333333" stroke-width="2.0" />
<rect x="633.5" y="114.0" width="12.0" height="12.0" rx="6.0" ry="6.0" fill="#ffffff" stroke="#333333" stroke-width="2.0" />
<rect x="703.5" y="114.0" width="12.0" height="12.0" rx="6.0" ry="6.0" fill="#ffffff" stroke="#333333" stroke-width="2.0" />
<rect x="773.5" y="114.0" width="12.0" height="12.0" rx="6.0" ry="6.0" fill="#ffffff" stroke="#333333" stroke-width="2.0" />
<rect x="1033.0" y="114.0" width="12.0" height="12.0" rx="6.0" ry="6.0" fill="#ffffff" stroke="#333333" stroke-width="2.0" />
<rect x="1103.0" y="114.0" width="12.0" height="15.0" rx="6.0" ry="6.0" fill="#ffffff" stroke="#333333" stroke-width="2.0" />
<rect x="1359.0" y="114.0" width="12.0" height="15.0" rx="6.0" ry="6.0" fill="#ffffff" stroke="#333333" stroke-width="2.0" />
<rect x="1429.0" y="114.0" width="12.0" height="15.0" rx="6.0" ry="6.0" fill="#ffffff" stroke="#333333" stroke-width="2.0" />
<rect x="1499.0" y="114.0" width="12.0" height="15.0" rx="6.0" ry="6.0" fill="#ffffff" stroke="#333333" stroke-width="2.0" />
<rect x="1569.0" y="114.0" width="12.0" height="12.0" rx="6.0" ry="6.0" fill="#ffffff" stroke="#333333" stroke-width="2.0" />
<rect x="1359.0" y="159.0" width="12.0" height="12.0" rx="6.0" ry="6.0" fill="#ffffff" stroke="#333333" stroke-width="2.0" />
<rect x="1359.0" y="204.0" width="12.0" height="12.0" rx="6.0" ry="6.0" fill="#ffffff" stroke="#333333" stroke-width="2.0" />
<rect x="1909.0" y="159.0" width="12.0" height="12.0" rx="6.0" ry="6.0" fill="#ffffff" stroke="#333333" stroke-width="2.0" />
<rect x="1909.0" y="204.0" width="12.0" height="12.0" rx="6.0" ry="6.0" fill="#ffffff" stroke="#333333" stroke-width="2.0" />
<rect x="1909.0" y="249.0" width="18.0" height="12.0" rx="6.0" ry="6.0" fill="#ffffff" stroke="#333333" stroke-width="2.0" />
<rect x="1585.0" y="327.0" width="12.0" height="12.0" rx="6.0" ry="6.0" fill="#ffffff" stroke="#333333" stroke-width="2.0" />
<rect x="1515.0" y="327.0" width="12.0" height="12.0" rx="6.0" ry="6.0" fill="#ffffff" stroke="#333333" stroke-width="2.0" />
<rect x="1585.0" y="372.0" width="12.0" height="12.0" rx="6.0" ry="6.0" fill="#ffffff" stroke="#333333" stroke-width="2.0" />
<rect x="1515.0" y="372.0" width="12.0" height="12.0" rx="6.0" ry="6.0" fill="#ffffff" stroke="#333333" stroke-width="2.0" />
<rect x="1386.5" y="372.0" width="12.0" height="12.0" rx="6.0" ry="6.0" fill="#ffffff" stroke="#333333" stroke-width="2.0" />
<rect x="1125.5" y="330.0" width="12.0" height="12.0" rx="6.0" ry="6.0" fill="#ffffff" stroke="#333333" stroke-width="2.0" />
<rect x="1125.5" y="414.0" width="12.0" height="12.0" rx="6.0" ry="6.0" fill="#ffffff" stroke="#333333" stroke-width="2.0" />
<rect x="988.0" y="369.0" width="12.0" height="18.0" rx="6.0" ry="6.0" fill="#ffffff" stroke="#333333" stroke-width="2.0" />
<text x="318.0" y="134.0" font-size="14.0" fill="#333333" font-family="'Helvetica Neue', Helvetica, Arial, sans-serif" font-weight="bold" text-anchor="middle" dominant-baseline="hanging">Salmon Quant</text>
<text x="639.5" y="131.0" font-size="14.0" fill="#333333" font-family="'Helvetica Neue', Helvetica, Arial, sans-serif" font-weight="bold" text-anchor="middle" dominant-baseline="hanging">Taxonomy Filter</text>
<text x="1039.0" y="131.0" font-size="14.0" fill="#333333" font-family="'Helvetica Neue', Helvetica, Arial, sans-serif" font-weight="bold" text-anchor="middle" dominant-baseline="hanging">Diamond BLASTX</text>
<text x="1365.0" y="134.0" font-size="14.0" fill="#333333" font-family="'Helvetica Neue', Helvetica, Arial, sans-serif" font-weight="bold" text-anchor="middle" dominant-baseline="hanging">TD2 LongOrfs</text>
<text x="1904.0" y="165.0" font-size="14.0" fill="#333333" font-family="'Helvetica Neue', Helvetica, Arial, sans-serif" font-weight="bold" text-anchor="end" dominant-baseline="central">Merge Predictions</text>
<text x="1131.5" y="322.0" font-size="14.0" fill="#333333" font-family="'Helvetica Neue', Helvetica, Arial, sans-serif" font-weight="bold" text-anchor="middle" dominant-baseline="auto">BUSCO Proteins</text>
<text x="1591.0" y="319.0" font-size="14.0" fill="#333333" font-family="'Helvetica Neue', Helvetica, Arial, sans-serif" font-weight="bold" text-anchor="middle" dominant-baseline="auto">Gene-level Quant</text>
<text x="1591.0" y="364.0" font-size="14.0" fill="#333333" font-family="'Helvetica Neue', Helvetica, Arial, sans-serif" font-weight="bold" text-anchor="middle" dominant-baseline="auto">Decontaminate</text>
<text x="1131.5" y="431.0" font-size="14.0" fill="#333333" font-family="'Helvetica Neue', Helvetica, Arial, sans-serif" font-weight="bold" text-anchor="middle" dominant-baseline="hanging">TransAnnot</text>
<text x="1365.0" y="176.0" font-size="14.0" fill="#333333" font-family="'Helvetica Neue', Helvetica, Arial, sans-serif" font-weight="bold" text-anchor="middle" dominant-baseline="hanging">MetaEuk</text>
<text x="1365.0" y="221.0" font-size="14.0" fill="#333333" font-family="'Helvetica Neue', Helvetica, Arial, sans-serif" font-weight="bold" text-anchor="middle" dominant-baseline="hanging">GeneMarkS-T</text>
<text x="150.0" y="106.0" font-size="14.0" fill="#333333" font-family="'Helvetica Neue', Helvetica, Arial, sans-serif" font-weight="bold" text-anchor="middle" dominant-baseline="auto">SortMeRNA</text>
<text x="388.0" y="106.0" font-size="14.0" fill="#333333" font-family="'Helvetica Neue', Helvetica, Arial, sans-serif" font-weight="bold" text-anchor="middle" dominant-baseline="auto">Corset</text>
<text x="709.5" y="106.0" font-size="14.0" fill="#333333" font-family="'Helvetica Neue', Helvetica, Arial, sans-serif" font-weight="bold" text-anchor="middle" dominant-baseline="auto">NT Cluster 90%</text>
<text x="1109.0" y="106.0" font-size="14.0" fill="#333333" font-family="'Helvetica Neue', Helvetica, Arial, sans-serif" font-weight="bold" text-anchor="middle" dominant-baseline="auto">Correct Frameshifts</text>
<text x="1435.0" y="106.0" font-size="14.0" fill="#333333" font-family="'Helvetica Neue', Helvetica, Arial, sans-serif" font-weight="bold" text-anchor="middle" dominant-baseline="auto">Homology Search</text>
<text x="1904.0" y="210.0" font-size="14.0" fill="#333333" font-family="'Helvetica Neue', Helvetica, Arial, sans-serif" font-weight="bold" text-anchor="end" dominant-baseline="central">HMMER Extend</text>
<text x="1521.0" y="313.0" font-size="14.0" fill="#333333" font-family="'Helvetica Neue', Helvetica, Arial, sans-serif" font-weight="bold" text-anchor="middle" dominant-baseline="auto">Validate IDs</text>
<text x="994.0" y="361.0" font-size="14.0" fill="#333333" font-family="'Helvetica Neue', Helvetica, Arial, sans-serif" font-weight="bold" text-anchor="middle" dominant-baseline="auto">Thinning Report</text>
<text x="1521.0" y="389.0" font-size="14.0" fill="#333333" font-family="'Helvetica Neue', Helvetica, Arial, sans-serif" font-weight="bold" text-anchor="middle" dominant-baseline="hanging">Full Trinity Quant</text>
<text x="458.0" y="131.0" font-size="14.0" fill="#333333" font-family="'Helvetica Neue', Helvetica, Arial, sans-serif" font-weight="bold" text-anchor="middle" dominant-baseline="hanging">Select Rep</text>
<text x="779.5" y="131.0" font-size="14.0" fill="#333333" font-family="'Helvetica Neue', Helvetica, Arial, sans-serif" font-weight="bold" text-anchor="middle" dominant-baseline="hanging">Locus Cluster</text>
<text x="1505.0" y="134.0" font-size="14.0" fill="#333333" font-family="'Helvetica Neue', Helvetica, Arial, sans-serif" font-weight="bold" text-anchor="middle" dominant-baseline="hanging">TD2 Predict</text>
<text x="1901.0" y="255.0" font-size="14.0" fill="#333333" font-family="'Helvetica Neue', Helvetica, Arial, sans-serif" font-weight="bold" text-anchor="end" dominant-baseline="central">Protein Cluster 95%</text>
<text x="1392.5" y="364.0" font-size="14.0" fill="#333333" font-family="'Helvetica Neue', Helvetica, Arial, sans-serif" font-weight="bold" text-anchor="middle" dominant-baseline="auto">Build tx2gene</text>
<text x="1575.0" y="106.0" font-size="14.0" fill="#333333" font-family="'Helvetica Neue', Helvetica, Arial, sans-serif" font-weight="bold" text-anchor="middle" dominant-baseline="auto">Select Best ORF</text>
<rect x="30.0" y="518.0" width="167.51999999999998" height="96.0" rx="6" ry="6" fill="rgba(255, 255, 255, 0.8)" />
<path d="M42.0,542.0 L66.0,542.0" stroke="#2db572" stroke-width="4.0" stroke-linecap="round" />
<text x="78.0" y="542.0" font-size="16.0" fill="#333333" font-family="'Helvetica Neue', Helvetica, Arial, sans-serif" dy="0.3em">Assembly</text>
<path d="M42.0,566.0 L66.0,566.0" stroke="#457b9d" stroke-width="4.0" stroke-linecap="round" />
<text x="78.0" y="566.0" font-size="16.0" fill="#333333" font-family="'Helvetica Neue', Helvetica, Arial, sans-serif" dy="0.3em">Quantification</text>
<path d="M42.0,590.0 L66.0,590.0" stroke="#f5c542" stroke-width="4.0" stroke-linecap="round" />
<text x="78.0" y="590.0" font-size="16.0" fill="#333333" font-family="'Helvetica Neue', Helvetica, Arial, sans-serif" dy="0.3em">Annotation</text>
<text x="1995.0" y="630.0" font-size="8" fill="rgba(150, 150, 150, 0.6)" font-family="'Helvetica Neue', Helvetica, Arial, sans-serif" text-anchor="end">created with nf-metro v0.5.4</text>
</svg>
